<svg xmlns="http://www.w3.org/2000/svg" viewBox="0 0 1440 900" width="100%" height="100%" preserveAspectRatio="xMidYMid slice">
  <defs>
    <linearGradient id="bgGrad" x1="0%" y1="0%" x2="100%" y2="100%">
      <stop offset="0%" stop-color="#5B8DEF" />
      <stop offset="35%" stop-color="#8B6FE8" />
      <stop offset="65%" stop-color="#D96CB3" />
      <stop offset="100%" stop-color="#F09ABB" />
    </linearGradient>
  </defs>

  <!-- Base gradient fill -->
  <rect width="1440" height="900" fill="url(#bgGrad)" />

  <!-- Wave mesh lines group - centered right  -->
  <g opacity="0.55" fill="none" stroke="white" stroke-width="0.9">
    <!-- Wave mesh - Row 1 -->
    <path d="M600,700 C750,600 900,400 1000,200 C1050,100 1100,50 1200,20 C1280,-5 1380,10 1440,30" />
    <path d="M580,720 C730,620 880,420 980,220 C1030,120 1080,70 1180,40 C1260,15 1360,30 1440,50" />
    <path d="M560,740 C710,640 860,440 960,240 C1010,140 1060,90 1160,60 C1240,35 1340,50 1440,70" />
    <path d="M540,760 C690,660 840,460 940,260 C990,160 1040,110 1140,80 C1220,55 1320,70 1440,90" />
    <path d="M520,780 C670,680 820,480 920,280 C970,180 1020,130 1120,100 C1200,75 1300,90 1440,110" />
    <path d="M500,800 C650,700 800,500 900,300 C950,200 1000,150 1100,120 C1180,95 1280,110 1440,130" />
    <path d="M480,820 C630,720 780,520 880,320 C930,220 980,170 1080,140 C1160,115 1260,130 1440,150" />
    <path d="M460,840 C610,740 760,540 860,340 C910,240 960,190 1060,160 C1140,135 1240,150 1440,170" />
    <path d="M440,860 C590,760 740,560 840,360 C890,260 940,210 1040,180 C1120,155 1220,170 1440,190" />
    <path d="M420,880 C570,780 720,580 820,380 C870,280 920,230 1020,200 C1100,175 1200,190 1440,210" />
    <path d="M400,900 C550,800 700,600 800,400 C850,300 900,250 1000,220 C1080,195 1180,210 1440,230" />

    <!-- Wave mesh - transversals -->
    <path d="M600,700 C680,760 760,800 820,840 C880,880 930,900 980,910" />
    <path d="M650,680 C720,750 800,790 860,830 C920,870 970,890 1020,900" />
    <path d="M700,660 C760,730 840,780 900,820 C960,860 1010,880 1060,890" />
    <path d="M750,640 C800,720 880,770 940,810 C1000,850 1050,870 1100,880" />
    <path d="M800,620 C840,710 920,760 980,800 C1040,840 1090,860 1140,870" />
    <path d="M850,600 C880,700 960,750 1020,790 C1080,830 1130,850 1180,860" />
    <path d="M900,580 C920,690 1000,740 1060,780 C1120,820 1170,840 1220,850" />
    <path d="M950,570 C960,680 1040,730 1100,770 C1160,810 1210,830 1260,840" />
    <path d="M1000,560 C1000,670 1080,720 1140,760 C1200,800 1250,820 1300,830" />
    <path d="M1050,550 C1040,660 1120,710 1180,750 C1240,790 1290,810 1340,820" />
    <path d="M1100,540 C1080,650 1160,700 1220,740 C1280,780 1330,800 1380,810" />
    <path d="M1150,530 C1120,640 1200,690 1260,730 C1320,770 1370,790 1420,800" />
  </g>
</svg>
